<?xml version="1.0" encoding="UTF-8"?>
<svg id="Capa_2" data-name="Capa 2" xmlns="http://www.w3.org/2000/svg" viewBox="0 0 64.31 60.28">
  <defs>
    <style>
      .cls-1 {
        fill: #17467f;
        stroke-width: 0px;
      }
    </style>
  </defs>
  <g id="Capa_1-2" data-name="Capa 1">
    <path class="cls-1" d="m32.44,50.85c.15.88.32,1.7.41,2.52.3,2.81-.91,4.83-3.35,6.14-2.38,1.28-4.61.9-6.73-.67-1.49-1.11-2.22-2.61-2.21-4.44,0-1.13.14-2.27.22-3.47-.4-.05-.84-.09-1.27-.17-2.96-.56-5.18-2.89-5.45-5.7-.28-2.97,1.45-5.63,4.37-6.73,1.24-.47,1.25-.47.89-1.75-3-10.69-6.01-21.38-9.02-32.06-.1-.35-.2-.71-.38-1.02-.3-.53-.79-.76-1.41-.75-2.23.01-4.45.01-6.68,0-.25,0-.51,0-.75-.06C.29,2.5-.06,1.98,0,1.15.07.47.6,0,1.37,0,3.48,0,5.59,0,7.7,0c.87,0,1.74,0,2.61,0,1.13,0,1.67.38,1.99,1.47.62,2.09,1.21,4.19,1.82,6.29.13.46.31.91.48,1.4,1.06-.25,2.07-.51,3.08-.73.47-.1.95-.18,1.43-.18,12.95,0,25.9,0,38.84,0,.67,0,1.36.03,2.02.17,3.14.63,4.93,3.44,4.16,6.57-1.8,7.31-3.62,14.62-5.46,21.92-.66,2.64-2.54,4.14-5.29,4.16-4.61.04-9.21.02-13.82.02-6.1,0-12.19,0-18.29,0-.44,0-.89.03-1.33.09-1.63.23-2.8,1.58-2.79,3.2,0,1.64,1.23,3.03,2.84,3.23.44.05.89.06,1.33.06,8.79,0,17.57.01,26.36,0,1.91,0,3.64.47,5.04,1.83,1.88,1.82,2.42,4.81,1.32,7.06-1.25,2.56-3.7,3.9-6.45,3.56-3.76-.48-6.18-3.96-5.33-7.65.12-.52.18-1.06.27-1.63h-10.1Zm8.08-32.41c.1.02.17.06.24.06,2.88,0,5.77,0,8.65.01.34,0,.41-.18.47-.46.24-1.21.51-2.42.76-3.63.2-.97.4-1.95.6-2.94h-10.72v6.96Zm-13.81-6.98c0,.09-.01.15,0,.2.47,2.13.95,4.25,1.4,6.39.09.42.31.5.68.5,2.65-.01,5.3,0,7.95,0,.17,0,.34-.03.51-.04v-7.04h-10.53Zm-1.76,7.08c0-.19.02-.33,0-.45-.41-1.84-.81-3.69-1.23-5.53-.2-.88-.56-1.16-1.47-1.15-1.31.01-2.63.03-3.94.07-1.54.05-2.41,1.25-2,2.75.27,1.01.55,2.01.83,3.01.27.99.68,1.31,1.68,1.32,1.86,0,3.71,0,5.57.01.19,0,.37-.02.58-.03Zm15.57,9.76c.08.03.13.06.19.06,2.01,0,4.02,0,6.04-.02.59,0,.97-.38,1.11-.94.25-1.01.48-2.02.69-3.04.17-.83.31-1.68.48-2.59h-8.5v6.53Zm-3.27.05v-6.59h-8.26c0,.14-.02.24,0,.33.43,1.98.86,3.95,1.31,5.92.03.14.31.32.48.33.73.04,1.47.02,2.2.02,1.41,0,2.81,0,4.26,0Zm15.7-9.91c.15.04.23.08.3.08,2.14,0,4.29.02,6.43-.01.16,0,.41-.26.46-.44.34-1.24.66-2.5.96-3.75.39-1.65-.56-2.89-2.25-2.94-.79-.02-1.58-.01-2.38-.01-.67,0-1.34,0-2.02,0-.51,2.4-1,4.72-1.5,7.08Zm-34.58,3.24c.63,2.23,1.2,4.3,1.81,6.37.04.14.33.29.51.29,2.03.02,4.06.01,6.09.01.12,0,.25-.04.4-.06-.45-2.05-.9-4.07-1.33-6.08-.07-.34-.23-.42-.55-.42-1.74.01-3.48.01-5.22,0-.53,0-1.06-.07-1.71-.11Zm32.52,6.67c2.05,0,3.98.02,5.91-.02.54-.01.9-.4,1.04-.95.2-.8.41-1.61.61-2.41.27-1.06.54-2.12.8-3.18-.12-.04-.17-.08-.22-.08-2.13,0-4.25-.02-6.38,0-.15,0-.4.27-.44.45-.25,1.01-.46,2.03-.68,3.05-.21,1.02-.42,2.03-.64,3.12Zm-21.65,9.61c.01-.1.03-.14.02-.18-.42-1.95-.86-3.9-1.27-5.85-.08-.36-.29-.38-.59-.38-1.62,0-3.25,0-4.87,0-.44,0-.88,0-1.43,0,.56,1.83,1.06,3.59,1.65,5.32.23.66.87,1.04,1.55,1.07,1.64.06,3.28.02,4.94.02Zm27.64-6.32c-.12-.04-.17-.07-.22-.07-2.03,0-4.06-.01-6.09,0-.15,0-.38.23-.42.39-.22.88-.4,1.77-.59,2.65-.23,1.1-.45,2.21-.7,3.39,1.28,0,2.48,0,3.67,0,2.18.01,2.82-.55,3.28-2.47.32-1.31.7-2.6,1.06-3.9Zm-16.35-.07v6.42c1.65,0,3.27,0,4.89-.02.12,0,.31-.25.34-.41.29-1.38.55-2.77.83-4.15.12-.6.27-1.2.42-1.84h-6.48Zm-3.25-.01c-1.68,0-3.3,0-4.92,0-.82,0-1.16.39-.99,1.21.29,1.4.59,2.79.89,4.19.15.68.57,1.03,1.27,1.04,1.1.01,2.21,0,3.31,0,.15,0,.29-.03.45-.05v-6.39Zm-13.74,22.46c0,1.72,1.43,3.11,3.18,3.1,1.72-.01,3.13-1.42,3.1-3.11-.03-1.77-1.4-3.17-3.11-3.17-1.75,0-3.17,1.42-3.16,3.18Zm24.84-3.18c-1.75-.01-3.16,1.4-3.15,3.17,0,1.69,1.39,3.09,3.08,3.12,1.72.03,3.23-1.44,3.21-3.14-.02-1.71-1.44-3.14-3.14-3.15Z"/>
  </g>
</svg>