<?xml version="1.0" encoding="UTF-8"?>
<svg id="Capa_2" data-name="Capa 2" xmlns="http://www.w3.org/2000/svg" viewBox="0 0 45.27 46.78">
  <defs>
    <style>
      .cls-1 {
        fill: #17467f;
        stroke-width: 0px;
      }
    </style>
  </defs>
  <g id="Capa_1-2" data-name="Capa 1">
    <g>
      <path class="cls-1" d="m21.88,27.72c-5.2.13-10.34,2.14-14.33,6.65-2.64,2.98-4.04,6.48-4.09,10.49-.01.94-.45,1.59-1.23,1.83-.72.22-1.51,0-1.9-.65-.21-.34-.34-.78-.33-1.18.06-4.64,1.6-8.75,4.56-12.31,3.88-4.66,8.91-7.29,14.88-8.08,5.35-.71,10.44.21,15.12,2.92,5.4,3.12,8.99,7.65,10.32,13.82.26,1.19.32,2.43.39,3.66.06,1.11-.7,1.89-1.71,1.89-1.01,0-1.74-.77-1.75-1.88-.01-2.17-.46-4.26-1.35-6.23-1.96-4.34-5.25-7.34-9.57-9.24-2.63-1.16-5.39-1.69-9-1.7Z"/>
      <path class="cls-1" d="m22.65,22.54c-6.19,0-11.28-5.05-11.29-11.21C11.36,5.08,16.39.01,22.61,0c6.23-.01,11.28,5.05,11.28,11.29,0,6.18-5.07,11.25-11.24,11.25Zm-.1-19.08c-4.32.05-7.76,3.58-7.73,7.89.04,4.31,3.6,7.77,7.95,7.71,4.28-.05,7.7-3.61,7.66-7.96-.04-4.23-3.62-7.7-7.88-7.65Z"/>
    </g>
  </g>
</svg>